<?xml version="1.0" standalone="no"?>
<!DOCTYPE svg PUBLIC "-//W3C//DTD SVG 20010904//EN"
 "http://www.w3.org/TR/2001/REC-SVG-20010904/DTD/svg10.dtd">
<svg version="1.0" xmlns="http://www.w3.org/2000/svg"
 width="36.000000pt" height="36.000000pt" viewBox="0 0 36.000000 36.000000"
 preserveAspectRatio="xMidYMid meet">

<g transform="translate(0.000000,36.000000) scale(0.100000,-0.100000)"
fill="#000000" stroke="none">
<path d="M122 346 c-19 -6 -50 -27 -70 -46 l-35 -33 28 -23 28 -22 32 34 c26
27 40 34 69 34 21 0 47 -5 58 -11 17 -9 24 -7 41 9 27 27 12 46 -48 61 -53 13
-60 13 -103 -3z"/>
<path d="M180 180 c0 -29 1 -30 50 -30 53 0 62 -10 36 -45 -12 -17 -11 -21 8
-36 19 -16 23 -16 38 -2 20 18 38 73 38 116 l0 27 -85 0 -85 0 0 -30z"/>
</g>
</svg>
