<?xml version="1.0"?>
<svg version="1.1" xmlns="http://www.w3.org/2000/svg" width="400" height="200" style=""><path fill="#181d21" d="M15.175,99.475l0-2.975l10.85-0.175l0,3.15l-2.59,1.015l3.22,10.045l1.12,4.305l1.12-4.13l3.465-10.185l-2.66-1.05l0-2.975l10.465-0.175l0,3.15l-2.555,1.05l-7.385,20.475l-5.6,0l-7.07-20.545z M44.17285,121l0-2.975l2.625-1.05l0-16.45l-2.625-1.05l0-2.975l10.675-0.175l0,3.15l-2.625,1.05l0,16.45l2.625,1.05l0,2.975l-10.675,0z M59.0307,121l0-2.975l2.17-0.875l7.07-8.54l-6.51-8.47l-2.03-0.665l0-2.975l10.5-0.175l0,3.15l-1.75,0.595l3.605,4.795l3.43-4.655l-1.89-0.735l0-2.975l10.08-0.175l0,3.15l-2.31,0.7l-6.44,8.155l6.825,8.855l2.45,0.84l0,2.975l-10.85,0l0-2.975l1.61-0.7l-3.85-5.18l-3.92,5.04l2.205,0.84l0,2.975l-10.395,0z M92.75355,113.405l0.525,2.94s1.4,0.735,3.43,0.735c2.24,0,4.235-0.98,4.235-2.835c0-4.095-11.83-2.275-11.83-10.92c0-4.83,3.815-7.42,8.89-7.42c3.955,0,7.7,1.4,7.7,1.4l-0.175,6.37l-3.22,0l-0.875-2.975s-1.575-0.525-3.08-0.525c-2.485,0-3.71,1.085-3.71,2.485c0,4.06,11.795,2.45,11.795,10.675c0,5.25-4.06,8.12-9.45,8.12c-3.955,0-7.805-1.33-7.805-1.33l0-6.72l3.57,0z M111.8464,121l0-2.975l2.625-1.05l0-16.45l-2.625-1.05l0-2.975l10.85-0.175l0,3.15l-2.8,1.05l0,5.6l9.17,0l0-5.6l-2.8-1.05l0-2.975l10.85-0.175l0,3.15l-2.625,1.05l0,16.45l2.625,1.05l0,2.975l-10.85,0l0-2.975l2.8-1.05l0-6.65l-9.17,0l0,6.65l2.8,1.05l0,2.975l-10.85,0z M166.77925,118.025l0,2.975l-11.13,0l0-2.975l2.625-0.945l-0.84-2.555l-7.77,0l-0.875,2.52l2.73,0.98l0,2.975l-10.57,0l0-2.975l2.555-0.98l7.7-20.615l5.6-0.105l7.525,20.72z M156.27925,110.78l-2.625-8.295l-2.765,8.295l5.39,0z"/><path fill="#" d=""/></svg>
